# xmcd
#
# Track frame offsets:
# 150
# 20956
# 37576
# 55171
# 72961
# 88694
# 105519
# 116309
# 132591
# 149381
# 197591
#
# Disc length: 2830 seconds
#
#
# Revision: 0
# Processed by: cddbd v1.5.1PL0 Copyright (c) Steve Scherf et al.
# Submitted via: FreeRIP 2.941 
#
DISCID=950b0c0b
DTITLE=Louis et le Voyageur - Quelle grande comédie
DYEAR=2005
DGENRE=Pop/Funk
TTITLE0=Massada
TTITLE1=Maladie mortelle
TTITLE2=Tonnerre dans les os
TTITLE3=La vie est belle
TTITLE4=Byblos Café
TTITLE5=Douze heures
TTITLE6=Sous mon lit
TTITLE7=Quelle grande comédie
TTITLE8=Le  Voyageur
TTITLE9=Les plaintes d'un Icare
TTITLE10=Quelque part dans l'Espace
EXTD=
EXTT0=
EXTT1=
EXTT2=
EXTT3=
EXTT4=
EXTT5=
EXTT6=
EXTT7=
EXTT8=
EXTT9=
EXTT10=
PLAYORDER=
